<svg width="64" height="64" viewBox="0 0 64 64" fill="none" xmlns="http://www.w3.org/2000/svg">
<path d="M50.6667 8.00002H39.52C38.4 4.90669 35.4667 2.66669 32 2.66669C28.5333 2.66669 25.6 4.90669 24.48 8.00002H13.3333C10.4 8.00002 8 10.4 8 13.3334V50.6667C8 53.6 10.4 56 13.3333 56H50.6667C53.6 56 56 53.6 56 50.6667V13.3334C56 10.4 53.6 8.00002 50.6667 8.00002ZM32 8.00002C33.4667 8.00002 34.6667 9.20002 34.6667 10.6667C34.6667 12.1334 33.4667 13.3334 32 13.3334C30.5333 13.3334 29.3333 12.1334 29.3333 10.6667C29.3333 9.20002 30.5333 8.00002 32 8.00002ZM26.6667 45.3334L16 34.6667L19.76 30.9067L26.6667 37.7867L44.24 20.2134L48 24L26.6667 45.3334Z" />
</svg>
