<svg width="64" height="64" viewBox="0 0 64 64" fill="none" xmlns="http://www.w3.org/2000/svg">
<path fill-rule="evenodd" clip-rule="evenodd" d="M39.52 10.6666H50.6667C53.6 10.6666 56 13.0666 56 16V53.3333C56 56.2667 53.6 58.6666 50.6667 58.6666H13.3333C10.4 58.6666 8 56.2667 8 53.3333V16C8 13.0666 10.4 10.6666 13.3333 10.6666H24.48C25.6 7.57331 28.5333 5.33331 32 5.33331C35.4667 5.33331 38.4 7.57331 39.52 10.6666ZM34.6667 13.3333C34.6667 11.8666 33.4667 10.6666 32 10.6666C30.5333 10.6666 29.3333 11.8666 29.3333 13.3333C29.3333 14.8 30.5333 16 32 16C33.4667 16 34.6667 14.8 34.6667 13.3333ZM35.5678 36.7647C37.9092 35.4953 39.5 33.016 39.5 30.1666C39.5 26.026 36.1406 22.6666 32 22.6666C28.5783 22.6666 25.6901 24.9608 24.7903 28.0941L18.2735 22.8437C17.9235 22.5625 17.4235 22.625 17.1485 22.9896L16.1685 24.3021C15.8985 24.6666 15.9585 25.1875 16.3085 25.4687L45.7284 49.151C46.0784 49.4323 46.5784 49.3698 46.8534 49.0052L47.8334 47.6875C48.1034 47.3333 48.0384 46.8073 47.6884 46.526L35.5678 36.7647ZM19.1985 46.3333C19.1985 42.4687 22.2085 39.3333 25.9185 39.3333H28.2885L40.7084 49.3333H21.5985C20.2735 49.3333 19.1985 48.2135 19.1985 46.8333V46.3333Z"/>
</svg>
