<svg width="64" height="64" viewBox="0 0 64 64" fill="none" xmlns="http://www.w3.org/2000/svg">
<path fill-rule="evenodd" clip-rule="evenodd" d="M39.52 10.6666H50.6667C53.6 10.6666 56 13.0666 56 16V53.3333C56 56.2667 53.6 58.6666 50.6667 58.6666H13.3333C10.4 58.6666 8 56.2667 8 53.3333V16C8 13.0666 10.4 10.6666 13.3333 10.6666H24.48C25.6 7.57331 28.5333 5.33331 32 5.33331C35.4667 5.33331 38.4 7.57331 39.52 10.6666ZM34.6667 13.3333C34.6667 11.8666 33.4667 10.6666 32 10.6666C30.5333 10.6666 29.3333 11.8666 29.3333 13.3333C29.3333 14.8 30.5333 16 32 16C33.4667 16 34.6667 14.8 34.6667 13.3333ZM23.4667 41.3333H22.0992C21.9066 41.3333 21.7289 41.2295 21.6344 41.0616L17.6308 33.95C17.5635 33.8304 17.3813 33.8782 17.3813 34.0154V40.8C17.3813 41.0945 17.1425 41.3333 16.8479 41.3333H15.8667C15.5721 41.3333 15.3333 41.0945 15.3333 40.8V29.8666C15.3333 29.5721 15.5721 29.3333 15.8667 29.3333H17.167C17.3603 29.3333 17.5385 29.4379 17.6327 29.6067L21.7023 36.8984C21.7693 37.0184 21.9521 36.9708 21.9521 36.8334V29.8666C21.9521 29.5721 22.1908 29.3333 22.4854 29.3333H23.4667C23.7612 29.3333 24 29.5721 24 29.8666V40.8C24 41.0945 23.7612 41.3333 23.4667 41.3333ZM27.4222 41.3333H33.5777C33.8723 41.3333 34.1111 41.0945 34.1111 40.8V39.8421C34.1111 39.5475 33.8723 39.3087 33.5777 39.3087H28.939C28.8653 39.3087 28.8056 39.249 28.8056 39.1754V36.1781C28.8056 36.1044 28.8653 36.0447 28.939 36.0447H33.039C33.3335 36.0447 33.5723 35.806 33.5723 35.5114V34.5561C33.5723 34.2615 33.3335 34.0227 33.039 34.0227H28.939C28.8653 34.0227 28.8056 33.963 28.8056 33.8894V31.4955C28.8056 31.4219 28.8653 31.3622 28.939 31.3622H33.3972C33.6917 31.3622 33.9305 31.1234 33.9305 30.8288V29.8666C33.9305 29.5721 33.6917 29.3333 33.3972 29.3333H27.4222C27.1276 29.3333 26.8889 29.5721 26.8889 29.8666V40.8C26.8889 41.0945 27.1276 41.3333 27.4222 41.3333ZM46.8986 41.3333H45.3873C45.1415 41.3333 44.9275 41.1653 44.8692 40.9264L42.9082 32.8929C42.8751 32.7573 42.6822 32.7573 42.6492 32.893L40.6934 40.9261C40.6352 41.1651 40.4211 41.3333 40.1752 41.3333H38.6128C38.3622 41.3333 38.1454 41.1589 38.0918 40.9141L35.6973 29.9807C35.6245 29.6481 35.8778 29.3333 36.2183 29.3333H37.3947C37.6486 29.3333 37.8674 29.5124 37.9175 29.7614L39.3726 36.9875C39.4007 37.1273 39.599 37.1313 39.6328 36.9928L41.4025 29.7402C41.4608 29.5014 41.6748 29.3333 41.9207 29.3333H43.7198C43.9683 29.3333 44.1838 29.5049 44.2396 29.747L45.9349 37.1133C45.9671 37.2532 46.1672 37.2504 46.1956 37.1098L47.6772 29.7612C47.7274 29.5123 47.9461 29.3333 48.2 29.3333H49.3347C49.676 29.3333 49.9295 29.6495 49.8553 29.9826L47.4191 40.916C47.3648 41.1599 47.1484 41.3333 46.8986 41.3333Z" />
</svg>
