<svg width="64" height="64" viewBox="0 0 64 64" fill="none" xmlns="http://www.w3.org/2000/svg">
<path fill-rule="evenodd" clip-rule="evenodd" d="M21.5008 6.66669H42.4993L57.3334 21.5008V42.4993L42.4993 57.3334H21.5008L6.66669 42.4993V21.5008L21.5008 6.66669ZM43.4129 18.9849L45.019 20.5909C45.1364 20.7084 45.1364 20.9015 45.0152 21.0152L21.0152 45.0152C20.8977 45.1326 20.7046 45.1326 20.5871 45.0152L18.9811 43.4091C18.9247 43.3522 18.8931 43.2752 18.8931 43.1951C18.8931 43.1149 18.9247 43.038 18.9811 42.9811L42.9849 18.9849C43.0418 18.9285 43.1187 18.8968 43.1989 18.8968C43.279 18.8968 43.3559 18.9285 43.4129 18.9849ZM29.5758 24.1212C29.5758 27.1288 27.1288 29.5758 24.1212 29.5758C21.1137 29.5758 18.6667 27.1288 18.6667 24.1212C18.6667 21.1137 21.1137 18.6667 24.1212 18.6667C27.1288 18.6667 29.5758 21.1137 29.5758 24.1212ZM26.8485 24.1212C26.8485 22.6174 25.625 21.394 24.1212 21.394C22.6174 21.394 21.394 22.6174 21.394 24.1212C21.394 25.625 22.6174 26.8485 24.1212 26.8485C25.625 26.8485 26.8485 25.625 26.8485 24.1212ZM34.4243 39.8788C34.4243 36.8712 36.8712 34.4243 39.8788 34.4243C42.8864 34.4243 45.3334 36.8712 45.3334 39.8788C45.3334 42.8864 42.8864 45.3334 39.8788 45.3334C36.8712 45.3334 34.4243 42.8864 34.4243 39.8788ZM37.1515 39.8788C37.1515 41.3826 38.375 42.6061 39.8788 42.6061C41.3826 42.6061 42.6061 41.3826 42.6061 39.8788C42.6061 38.375 41.3826 37.1515 39.8788 37.1515C38.375 37.1515 37.1515 38.375 37.1515 39.8788Z" />
</svg>
