<svg width="20" height="20" viewBox="0 0 20 20" fill="#964F19" xmlns="http://www.w3.org/2000/svg">
<path fill-rule="evenodd" clip-rule="evenodd" d="M3.33335 4.41659H16.6667C16.8387 4.41659 16.9934 4.49105 17.1001 4.60951L10.5215 8.62979C10.2014 8.82541 9.79869 8.82541 9.47858 8.62979L2.89993 4.6095C3.0067 4.49105 3.16133 4.41659 3.33335 4.41659ZM2.75002 5.7875V14.9999C2.75002 15.3221 3.01119 15.5833 3.33335 15.5833H8.76669C8.9876 15.5833 9.16669 15.7623 9.16669 15.9833V16.2666C9.16669 16.4875 8.9876 16.6666 8.76669 16.6666H3.33335C2.41288 16.6666 1.66669 15.9204 1.66669 14.9999V4.99992C1.66669 4.07944 2.41288 3.33325 3.33335 3.33325H16.6667C17.5872 3.33325 18.3334 4.07944 18.3334 4.99992V12.0999C18.3334 12.3208 18.1543 12.4999 17.9334 12.4999H17.65C17.4291 12.4999 17.25 12.3208 17.25 12.0999V5.78751L11.0429 9.58073C10.4027 9.97198 9.59736 9.97198 8.95713 9.58073L2.75002 5.7875Z"/>
<path fill-rule="evenodd" clip-rule="evenodd" d="M13.3333 11.2329C13.3333 11.0682 13.5214 10.9741 13.6532 11.0728L18.5308 14.726C18.691 14.846 18.691 15.0863 18.5308 15.2063L13.6532 18.8595C13.5214 18.9582 13.3333 18.8641 13.3333 18.6994V16.9578C13.3333 16.8474 13.2438 16.7578 13.1333 16.7578H10.4C10.1791 16.7578 10 16.5787 10 16.3578V13.5745C10 13.3536 10.1791 13.1745 10.4 13.1745H13.1333C13.2438 13.1745 13.3333 13.0849 13.3333 12.9745V11.2329ZM14.7201 13.449C14.5868 13.3685 14.4167 13.4645 14.4167 13.6202V13.9578C14.4167 14.1235 14.2824 14.2578 14.1167 14.2578H11.2833C11.1729 14.2578 11.0833 14.3474 11.0833 14.4578V15.4745C11.0833 15.5849 11.1729 15.6745 11.2833 15.6745H14.1167C14.2824 15.6745 14.4167 15.8088 14.4167 15.9745V16.3121C14.4167 16.4679 14.5868 16.5638 14.7201 16.4833L16.9485 15.1374C17.0773 15.0596 17.0773 14.8728 16.9485 14.795L14.7201 13.449Z"/>
</svg>
