<svg width="64" height="64" viewBox="0 0 64 64" fill="none" xmlns="http://www.w3.org/2000/svg">
<path d="M42.6666 29.3333C47.0933 29.3333 50.64 25.76 50.64 21.3333C50.64 16.9066 47.0933 13.3333 42.6666 13.3333C38.24 13.3333 34.6666 16.9066 34.6666 21.3333C34.6666 25.76 38.24 29.3333 42.6666 29.3333ZM21.3333 29.3333C25.76 29.3333 29.3066 25.76 29.3066 21.3333C29.3066 16.9066 25.76 13.3333 21.3333 13.3333C16.9066 13.3333 13.3333 16.9066 13.3333 21.3333C13.3333 25.76 16.9066 29.3333 21.3333 29.3333ZM21.3333 34.6666C15.12 34.6666 2.66663 37.7866 2.66663 44V50.6666H40V44C40 37.7866 27.5466 34.6666 21.3333 34.6666ZM42.6666 34.6666C41.8933 34.6666 41.0133 34.72 40.08 34.8C43.1733 37.04 45.3333 40.0533 45.3333 44V50.6666H61.3333V44C61.3333 37.7866 48.88 34.6666 42.6666 34.6666Z" fill="#555555"/>
</svg>
